<svg width="100%" height="100%" viewBox="0 0 100 100" fill="currentColor" xmlns="http://www.w3.org/2000/svg">
<mask id="mask0_103_2" style="mask-type:alpha" maskUnits="userSpaceOnUse" x="25" y="42" width="50" height="41">
<path fill-rule="evenodd" clip-rule="evenodd" d="M37 42H25V83H75V42H63V64C63 69.5228 58.5228 74 53 74H47C41.4772 74 37 69.5228 37 64V42Z"/>
</mask>
<g mask="url(#mask0_103_2)">
<rect x="25" y="42" width="50" height="41" rx="10"/>
</g>
<rect x="45" y="32" width="10" height="35" rx="4"/>
<path d="M48.4378 17.9542C49.2385 16.9526 50.7615 16.9526 51.5622 17.9542L62.9913 32.2512C64.0383 33.5608 63.1058 35.5 61.4291 35.5H38.5709C36.8942 35.5 35.9617 33.5608 37.0087 32.2512L48.4378 17.9542Z"/>
</svg>
