<svg width="100%" height="100%" viewBox="0 0 128 128" fill="none" xmlns="http://www.w3.org/2000/svg">
<path fill-rule="evenodd" clip-rule="evenodd" d="M97.2492 21.4501C95.5085 20.0899 92.9947 20.3984 91.6345 22.1391C90.2742 23.8798 90.5827 26.3936 92.3234 27.7538C93.7057 28.834 95.0208 29.9889 96.2635 31.2118L26.1556 90.1496C22.9042 85.444 20.5454 80.1536 19.2241 74.5412C17.2957 66.35 17.6512 57.7867 20.252 49.7835C20.9347 47.6825 19.785 45.4258 17.684 44.7431C15.583 44.0604 13.3264 45.2101 12.6436 47.3111C9.59056 56.7061 9.1732 66.7587 11.437 76.3745C13.7007 85.9903 18.5589 94.8009 25.4826 101.847C32.4063 108.893 41.1303 113.906 50.7048 116.338C60.2794 118.77 70.3378 118.529 79.785 115.641C89.2322 112.754 97.7062 107.33 104.285 99.9603C110.863 92.5906 115.294 83.5576 117.095 73.8445C118.896 64.1314 117.998 54.1103 114.499 44.8721C111 35.634 105.033 27.5327 97.2492 21.4501ZM31.2586 96.311C37.1453 102.276 44.5505 106.52 52.6745 108.584C60.8306 110.656 69.3988 110.451 77.4464 107.991C85.4941 105.531 92.7127 100.911 98.3166 94.6328C103.921 88.355 107.695 80.6602 109.229 72.386C110.763 64.1119 109.998 55.5754 107.017 47.7059C105.612 43.9949 103.739 40.4992 101.456 37.2976L31.2586 96.311Z" fill="currentColor"/>
<path fill-rule="evenodd" clip-rule="evenodd" d="M32.0047 35.4993C32.0016 35.3333 32 35.1668 32 35C32 20.6406 43.6406 9 58 9C70.1497 9 80.353 17.3336 83.2055 28.5966L85.4079 34.9889L32 79.8035V35.5L32.0047 35.4993ZM37.1931 96.3325L90.9903 51.1913L101.748 82.4146C100.696 84.5706 99.4579 86.6402 98.0426 88.5988C93.8291 94.4299 88.1884 99.081 81.6611 102.106C75.1339 105.131 67.939 106.429 60.7662 105.875C53.5934 105.321 46.6831 102.934 40.6977 98.9428C39.4817 98.132 38.3122 97.2604 37.1931 96.3325ZM59 38C63.4183 38 67 34.4183 67 30C67 25.5817 63.4183 22 59 22C54.5817 22 51 25.5817 51 30C51 34.4183 54.5817 38 59 38Z" fill="currentColor"/>
<path d="M14.5 17.5L43.5 21L39 42.5L13 31.5L29.5 30.5L14.5 17.5Z" fill="currentColor" stroke="currentColor" stroke-width="4" stroke-linejoin="round"/>
</svg>
